PathFileType	4	(X/Y/Z)	C:\Users\xlb\Desktop\20210112\20210112\bx_n_10_501.trc
DataRate	CameraRate	NumFrames	NumMarkers	Units	OrigDataRate	OrigDataStartFrame	OrigNumFrames
50.00	50.00	       8	43	mm	50.00	328	       436
Frame#	Time	Top.Head			R.Acromium			L.Acromium			Sternum			R.ASIS			L.ASIS			V.Sacral			R.Thigh.Upper			R.Thigh.Front			R.Thigh.Rear			R.Knee.Lat			R.Knee.Med			R.Shank.Upper			R.Shank.Front			R.Shank.Rear			R.Ankle.Lat			R.Midfoot.Lat			R.Toe.Lat			R.Toe.Tip			R.Toe.Med			R.Ankle.Med			R.Midfoot.Sup			R.Heel			L.Thigh.Upper			L.Thigh.Front			L.Thigh.Rear			L.Knee.Lat			L.Knee.Med			L.Shank.Upper			L.Shank.Front			L.Shank.Rear			L.Ankle.Lat			L.Midfoot.Lat			L.Toe.Lat			L.Toe.Tip			L.Toe.Med			L.Ankle.Med			L.Midfoot.Sup			L.Heel			origin1 front left			origin2 front right			origin 3 back right			origin 4 back leftt			
		X1	Y1	Z1	X2	Y2	Z2	X3	Y3	Z3	X4	Y4	Z4	X5	Y5	Z5	X6	Y6	Z6	X7	Y7	Z7	X8	Y8	Z8	X9	Y9	Z9	X10	Y10	Z10	X11	Y11	Z11	X12	Y12	Z12	X13	Y13	Z13	X14	Y14	Z14	X15	Y15	Z15	X16	Y16	Z16	X17	Y17	Z17	X18	Y18	Z18	X19	Y19	Z19	X20	Y20	Z20	X21	Y21	Z21	X22	Y22	Z22	X23	Y23	Z23	X24	Y24	Z24	X25	Y25	Z25	X26	Y26	Z26	X27	Y27	Z27	X28	Y28	Z28	X29	Y29	Z29	X30	Y30	Z30	X31	Y31	Z31	X32	Y32	Z32	X33	Y33	Z33	X34	Y34	Z34	X35	Y35	Z35	X36	Y36	Z36	X37	Y37	Z37	X38	Y38	Z38	X39	Y39	Z39	X40	Y40	Z40	X41	Y41	Z41	X42	Y42	Z42	X43	Y43	Z43	

328	6.540	-201.65796	108.43440	1483.90234	-393.40576	-63.83986	1276.35181	-402.48697	261.08267	1271.43323	-511.42987	95.37550	1110.55664	-750.47107	-11.65555	1004.46594	-754.56268	232.72728	1028.92834	-935.30719	84.74902	1089.93066	-824.31128	-78.30278	863.26587	-739.62122	-10.05547	803.35870	-824.05280	-70.59830	746.68365	-812.13177	-42.98705	606.89972	-794.68298	66.73096	566.28210	-809.85632	-40.72536	559.24738	-750.87048	11.37490	524.21155	-831.91187	-55.45786	472.14444	-761.83563	-22.85846	202.06351	-648.21600	-68.22857	160.96710	-606.96954	-76.17415	156.51918	-550.29309	-29.01899	162.55638	-598.17987	25.89931	166.55586	-726.04065	65.11993	219.34097	-672.47278	51.99549	161.94998	-793.33875	36.38045	172.36394	-850.33051	281.47821	868.26233	-742.75153	206.86250	815.84912	-831.76361	275.58047	732.92316	-838.31152	252.56914	629.36719	-788.49561	143.95383	571.76782	-824.71283	248.89935	566.04663	-763.02936	206.72420	537.09460	-846.69366	262.64581	486.47659	-773.12207	230.32080	202.00735	-660.54626	298.74643	156.23332	-623.89349	306.78384	158.18030	-557.78223	255.12454	164.14462	-594.26001	220.18993	174.00423	-720.35254	158.64999	222.37479	-676.55872	175.74660	162.97270	-798.56824	181.75665	180.96190	-527.99927	304.12650	146.21687	-517.93457	-73.09370	142.79533	-875.74176	-78.72219	141.16541	-882.70837	296.09232	144.61172	
329	6.560	-209.76563	108.50328	1499.71558	-398.02576	-64.32458	1287.04028	-406.67389	261.76019	1283.21606	-512.05908	95.37814	1117.48132	-747.84821	-11.57608	1006.44775	-752.65558	232.74455	1030.75732	-934.07080	84.60844	1089.40881	-821.74249	-78.16168	863.67731	-737.12061	-10.22460	803.59064	-821.97034	-70.47745	747.17554	-810.44202	-42.97064	607.18567	-793.07361	66.72121	566.40411	-808.39496	-40.73480	559.54926	-749.50488	11.28768	524.21155	-830.73907	-55.63129	472.61853	-761.88983	-22.80704	202.10463	-648.21918	-68.29195	160.89725	-606.95563	-76.18493	156.45238	-550.31110	-29.10445	162.53984	-598.14490	25.86376	166.60922	-725.86908	65.27052	219.43158	-672.51172	52.03052	161.97697	-793.31146	36.39740	172.40198	-847.88086	281.18674	868.74060	-740.15283	206.97913	816.34515	-829.73010	275.31906	733.54877	-836.56696	252.47250	629.86749	-786.96216	144.07654	571.90680	-823.32288	248.78848	566.36871	-761.65149	206.73921	537.23773	-845.58044	262.49786	486.85583	-773.07916	230.36867	202.00319	-660.62769	298.74637	156.18510	-623.92365	306.86975	158.05144	-557.81067	255.17578	164.13274	-594.22021	220.22765	174.04193	-720.17938	158.59637	222.31058	-676.55237	175.82480	163.02982	-798.54199	181.69220	181.07568	-527.99921	304.08484	146.24525	-517.91656	-73.14295	142.85164	-875.77246	-78.78218	141.21147	-882.69000	296.11246	144.64983	
330	6.580	-218.57303	108.60924	1516.18677	-402.96216	-64.78197	1298.08252	-411.16290	262.64883	1295.39868	-512.74701	95.38006	1124.73743	-745.01843	-11.49263	1008.47125	-750.45972	232.83055	1032.58398	-932.75055	84.38903	1088.97974	-819.06561	-77.97637	864.21539	-734.47473	-10.47436	803.83405	-819.74426	-70.31824	747.63373	-808.70868	-42.94638	607.47052	-791.32813	66.62772	566.57898	-806.92596	-40.75016	559.94513	-748.07184	11.10582	524.28992	-829.59888	-55.67589	473.08603	-762.00085	-22.79293	202.12766	-648.24438	-68.38992	160.79315	-606.94324	-76.28455	156.33879	-550.34113	-29.21779	162.51096	-598.12024	25.77022	166.74208	-725.70587	65.41380	219.52548	-672.57379	52.03747	162.03195	-793.29791	36.38943	172.42467	-845.30994	280.89935	869.22717	-737.34424	207.15225	816.78784	-827.62256	275.08954	734.13232	-834.73816	252.29016	630.35199	-785.30267	144.20790	572.00897	-821.85236	248.69830	566.68848	-760.17584	206.75388	537.38086	-844.42902	262.32355	487.26123	-773.06207	230.39767	202.01498	-660.69196	298.76486	156.14537	-623.93066	306.94205	157.92606	-557.86487	255.24321	164.14102	-594.19604	220.28212	174.08546	-719.97168	158.47060	222.30077	-676.50415	175.83911	162.99667	-798.51923	181.68213	181.11502	-527.99146	304.04150	146.25940	-517.89911	-73.15849	142.92419	-875.82507	-78.80209	141.21175	-882.66284	296.11044	144.67474	
331	6.600	-228.05133	108.74516	1533.12524	-408.22433	-65.25588	1309.37866	-416.06473	263.72714	1307.73877	-513.49554	95.38066	1132.32947	-742.00488	-11.48315	1010.58026	-747.98828	232.98491	1034.40686	-931.05920	84.13879	1088.55359	-816.18524	-77.82122	864.93164	-731.68176	-10.80739	804.12122	-817.41187	-70.12193	748.08722	-806.97174	-42.95963	607.80945	-789.38275	66.46134	566.88605	-805.44617	-40.77300	560.40839	-746.60016	10.84628	524.43890	-828.53912	-55.56271	473.51776	-762.16321	-22.81474	202.15247	-648.30853	-68.54627	160.67564	-606.93628	-76.48923	156.20119	-550.36597	-29.34262	162.45927	-598.12158	25.60851	166.95677	-725.57990	65.46164	219.57416	-672.63708	51.93894	162.14420	-793.29846	36.36718	172.42101	-842.61926	280.65863	869.69556	-734.40295	207.39038	817.11127	-825.40222	274.85678	734.66284	-832.86261	252.02252	630.81177	-783.54785	144.25592	572.18042	-820.28571	248.59561	567.00134	-758.62988	206.73703	537.48730	-843.26294	262.09363	487.67001	-773.05627	230.38760	202.06436	-660.72437	298.78259	156.12521	-623.93561	306.99158	157.85207	-557.93774	255.33374	164.15085	-594.18475	220.35355	174.11435	-719.70380	158.30247	222.34492	-676.42029	175.79570	162.87660	-798.47168	181.67628	181.07254	-527.98682	304.01099	146.26265	-517.90277	-73.14999	142.97160	-875.86255	-78.77773	141.18472	-882.62903	296.08087	144.68512	
332	6.620	-238.22693	108.91809	1550.35327	-413.85587	-65.75797	1320.81738	-421.45929	264.87631	1320.07739	-514.30933	95.37717	1140.26538	-738.80298	-11.57806	1012.77087	-745.29858	233.17238	1036.22693	-928.66510	83.94844	1087.95654	-813.06775	-77.75906	865.77155	-728.72827	-11.19839	804.43884	-815.02075	-69.92455	748.59357	-805.20001	-43.01910	608.21436	-787.22424	66.28676	567.28796	-803.93018	-40.79061	560.84729	-745.10101	10.55902	524.58783	-827.54645	-55.33929	473.92026	-762.34552	-22.85389	202.20215	-648.40411	-68.77687	160.56847	-606.93878	-76.74364	156.07872	-550.38007	-29.44138	162.38649	-598.14075	25.39655	167.23076	-725.47955	65.38466	219.56354	-672.70331	51.74340	162.31752	-793.31049	36.35826	172.39444	-839.73529	280.46887	870.13513	-731.34595	207.67870	817.30505	-823.02533	274.58475	735.17004	-830.92212	251.74034	631.24591	-781.70605	144.21274	572.45728	-818.63928	248.43596	567.33252	-757.03894	206.68291	537.54486	-842.06378	261.79410	488.06943	-773.03589	230.34398	202.12355	-660.72675	298.78925	156.12585	-623.97510	307.01672	157.84973	-558.03632	255.44325	164.14630	-594.17810	220.45151	174.13034	-719.41852	158.13010	222.37624	-676.33044	175.72717	162.72919	-798.39325	181.61842	181.00124	-527.98151	303.99069	146.26938	-517.92572	-73.13042	142.97179	-875.87091	-78.73923	141.17108	-882.60767	296.04309	144.68353	
333	6.640	-249.12772	109.15720	1567.74792	-419.87766	-66.26596	1332.33887	-427.31808	266.02460	1332.33057	-515.19556	95.36395	1148.55701	-735.40125	-11.67612	1014.95264	-742.45013	233.33426	1038.04480	-925.55798	83.87675	1087.11609	-809.76068	-77.79347	866.61273	-725.62225	-11.65235	804.73334	-812.53003	-69.81310	749.18372	-803.34778	-43.09014	608.63672	-784.91992	66.15799	567.68726	-802.34070	-40.81342	561.20660	-743.52368	10.27141	524.67633	-826.52856	-55.10112	474.33066	-762.50531	-22.89985	202.27419	-648.50037	-69.04889	160.47945	-606.95349	-76.97980	155.98637	-550.39142	-29.49333	162.31049	-598.15784	25.15860	167.53053	-725.35828	65.23199	219.54544	-672.77924	51.54360	162.50775	-793.33063	36.37471	172.35233	-836.59143	280.29913	870.57166	-728.13586	207.98947	817.42377	-820.47192	274.25320	735.68457	-828.87897	251.53320	631.67456	-779.76672	144.13954	572.80206	-816.94025	248.22705	567.68158	-755.42712	206.61906	537.57861	-840.79407	261.45334	488.46622	-772.99573	230.29533	202.16190	-660.71912	298.79202	156.14745	-624.05695	307.01770	157.89958	-558.17242	255.54880	164.13206	-594.18665	220.58189	174.15656	-719.19745	157.98868	222.33316	-676.27484	175.66206	162.60275	-798.31110	181.52417	180.94582	-527.96973	303.97067	146.28119	-517.95062	-73.09784	142.93697	-875.86353	-78.71024	141.18420	-882.61951	296.02771	144.67288	
334	6.660	-260.74210	109.48799	1585.20605	-426.23706	-66.75246	1343.89075	-433.52588	267.17194	1344.41467	-516.15930	95.33562	1157.21594	-731.81049	-11.65159	1017.05444	-739.46881	233.44659	1039.86792	-922.10571	83.96063	1086.11047	-806.24902	-77.89552	867.39423	-722.36938	-12.18782	804.96521	-809.80127	-69.85841	749.86041	-801.39960	-43.16437	609.04669	-782.57416	66.06875	568.01489	-800.63208	-40.85771	561.53613	-741.78802	9.99590	524.71796	-825.37915	-54.90002	474.76776	-762.61249	-22.94186	202.35173	-648.57458	-69.28872	160.39420	-606.97662	-77.17927	155.91264	-550.40930	-29.51262	162.25864	-598.16895	24.90778	167.81374	-725.17633	65.08575	219.56966	-672.84839	51.41439	162.65421	-793.35883	36.39601	172.30948	-833.19495	280.13934	871.04218	-724.71429	208.30951	817.56873	-817.74829	273.89478	736.23431	-826.70941	251.43832	632.13470	-777.71838	144.10782	573.16241	-815.16779	248.04660	568.05176	-753.76904	206.58299	537.63593	-839.42273	261.13770	488.89554	-772.94952	230.26862	202.17581	-660.72717	298.80521	156.18831	-624.15118	307.01492	157.96274	-558.31757	255.62781	164.13078	-594.22211	220.72398	174.21622	-719.07233	157.90213	222.22919	-676.27039	175.61159	162.49519	-798.24982	181.44278	180.91728	-527.94977	303.95151	146.29074	-517.96381	-73.05346	142.90175	-875.85760	-78.69199	141.19763	-882.65851	296.04794	144.66187	
335	6.680	-273.02161	109.89999	1602.59375	-432.86441	-67.20720	1355.34839	-439.95984	268.33823	1356.25745	-517.18878	95.29796	1166.23682	-728.07605	-11.48157	1019.10016	-736.34631	233.55109	1041.70288	-918.79944	84.20479	1085.10168	-802.47357	-78.01290	868.14642	-718.93951	-12.74067	805.14423	-806.73047	-70.01318	750.61670	-799.32281	-43.25559	609.47852	-780.24951	65.97147	568.25122	-798.74506	-40.89681	561.91913	-739.88971	9.78399	524.75787	-824.05011	-54.71526	475.23117	-762.66156	-22.94789	202.44432	-648.63763	-69.45895	160.29872	-606.99854	-77.35236	155.84850	-550.43439	-29.52452	162.25269	-598.18195	24.65983	168.03961	-724.93073	65.01613	219.64624	-672.89038	51.36309	162.72858	-793.40674	36.42017	172.29987	-829.60669	280.00366	871.55164	-721.07300	208.64641	817.82013	-814.86926	273.57166	736.82324	-824.40045	251.43483	632.64825	-775.54926	144.12933	573.50299	-813.27155	247.98264	568.47156	-751.99445	206.60794	537.74835	-837.93085	260.91803	489.38177	-772.89203	230.26402	202.18274	-660.75934	298.83063	156.23476	-624.22955	307.05048	158.00250	-558.40649	255.68411	164.16559	-594.24976	220.84804	174.30757	-718.98730	157.86525	222.11606	-676.30072	175.57521	162.38928	-798.20441	181.39883	180.90619	-527.92023	303.94388	146.30693	-517.95593	-73.01179	142.89626	-875.85754	-78.67866	141.18269	-882.69269	296.08551	144.65910	
